<?xml version="1.0" encoding="UTF-8"?>
<svg id="Calque_2" data-name="Calque 2" xmlns="http://www.w3.org/2000/svg" viewBox="0 0 3072 565">
  <path class="cls-1" d="m509.713,368.165h482.974c38.935,0,70.497-31.563,70.497-70.497h0c0-38.935,31.563-70.497,70.497-70.497h456.389c30.748,0,55.674-24.926,55.674-55.674h0c0-30.748-24.926-55.674-55.674-55.674h-1.369c-30.748,0-55.674,24.926-55.674,55.674v117.153c0,82.802,67.124,149.925,149.925,149.925h146.885c27.612,0,49.997-22.384,49.997-49.997v-209.698c0-55.116,44.68-99.797,99.797-99.797h256.397c210.659,0,567.485-25.107,567.485,207.485h0c0,70.447-55.742,119.498-119.497,119.498h0c-78.966,0-124.017-55.524-124.017-124.017h0"/>
</svg>